/* XPM */
static char *Ice1733393853[] = {
/* columns rows colors chars-per-pixel */
"64 64 54 1 ",
"  c #88BFEC",
". c #85C0EE",
"X c #8BC3EE",
"o c #95C3E7",
"O c #98C3E7",
"+ c #94C4ED",
"@ c #9BC6ED",
"# c #96CAEE",
"$ c #9EC9EE",
"% c #86C2F3",
"& c #8CC5F1",
"* c #8EC9F9",
"= c #93C6F1",
"- c #99C6F1",
"; c #95CAF2",
": c #9CCCF2",
"> c #92CEF9",
", c #9DD0F5",
"< c #96D0FA",
"1 c #9AD1F9",
"2 c #A9C7E7",
"3 c #AFCAE7",
"4 c #A2C6ED",
"5 c #A3CBEE",
"6 c #ACCDED",
"7 c #B2CEEC",
"8 c #B8CEEB",
"9 c #ADD1EF",
"0 c #B4D1EE",
"q c #BBD2EE",
"w c #A4CDF2",
"e c #ABCEF1",
"r c #A5CFF8",
"t c #B1CFF1",
"y c #A5D1F4",
"u c #ACD2F4",
"i c #A3D4F9",
"p c #ACD5F9",
"a c #ACD9FB",
"s c #B4D3F2",
"d c #BBD5F2",
"f c #B7D8F7",
"g c #BCD9F5",
"h c #B2D6F9",
"j c #B8D7F8",
"k c #B4D9F9",
"l c #BDDBF9",
"z c #C1D5EE",
"x c #C0D7F2",
"c c #C2DAF5",
"v c #C8DBF6",
"b c #C2DDF9",
"n c #C8DEF8",
"m c #C5E0FC",
/* pixels */
"dses6uw455$$yywu5wyk960sg0cddqdvdqxdqqxzzvzzxcbdgjgds0ss6sgs7sss",
"dsseeupw55y$iw$59w6k0630dqddq8xcdxcdqq88zxzzcxddddj8qsssess067ss",
"ttse6pup9yw$w@456wal0036t8ddqvvxxdvvd88qxccvbcdq8ttqgcgs7ss7tshe",
"6766ukuu5$$$5#$w5ualg000dddxvvxzxdgvxdxzzxzzxxddq7txccd76ss8s76t",
"ssdjuhew$$$w::w5us9ll337ddgxdx8z7dddxcxdq8qxcvddqjdbxtsstss0dttt",
"sss76ypw$$O,:$y9s09fk0s77dcxqqz88qqxxvxdqqdxccxdjddddqtsse67sjds",
"tt765wpiy#,w$wusushkf00qqd7dqd7zq88xxdxdddgcczdddgj6t770steesdjs",
"e6s5ew:wywy559a99s0klg0qst73t87xx8dddqqdddcccdddtjj6t7t86sssss0e",
"s6u555@$ayuu9w$9u9sglfsdd7ttdddcd88qs0q00sdsdqsgjssds00gdjs6ttst",
"s0ue5555uka99w$w0s0sffg0dt76ggcd8777770dsssss67ssfffmggsdsss7ss7",
"ss7699669fa5$y9wtsdsfs0sddddddq3767s2eesseeus360ssgfgfggdsddtss7",
"76070966uay#$yuuss07lssdddjjdgt222676e5ehewuhs7s0s960sqd0dssttss",
"sdd00055wpy5599u6ssqqdgdddjjtjste45256ww566wpsssessss0gls0ddsdgd",
"gddds95wypppww5yusddqlbddddseewuw4w455uww6ew5heetes0sq0lg0737tsg",
"ld000uupup9yw:uu00ddqld7dte5ew44@wre55uw:wwwwre6ess7sgdlcg00stqg",
"cs770ssspp65yukgddgcdgsteee5w4weww4 4www@::w::uhsds0ddssgds8qdtx",
"d70g0s0haussffslgggggqsueerw44@wwr@#$y5,;&-,:,yffjslggqdqdddgq7q",
"bdddds0s99ssssfflfsss9skpeer2 www$@$$$$,>&&;:;,ajstgdgddddgggdgc",
"bggggg0s090sgssffsff999uupuww4epw$$#;X&#&X%<,,,yjtsgdqqdqdddggdl",
"bmcssgdgdgdggfgk09fk669u6eeatewe5$o&X.XX##X;1,#wksdg0ddblgbbbbbb",
"dqq800ccd0fssssksssu66phu6upk9555,+&...X##&.-1,,us0dggglcglccgdd",
"0qqq80gdq099s0gsuuuu6weu5969aa55$,-XXXXX#,#;;:$yuhkdusfddqddqqqd",
"g0ddqqqq0qs0000s6pu669uhu9w99aw,,$:#&&X&,1y<=:rriwkh93sddqqqq7qx",
"qqdqqdd8dddds39suhpuu99su599ww::ii;#;##>1,y,;;:i:4essusddqdds88q",
"q0qqqdx8qxq039sssfa96s5uuyweywwo#5ui,;<*%::$++::@@ws77sd00ddd8xd",
"g00qxzdqqdd090sssu66567uewwyu99wwyai,,<;%=$5:=:w@@wp666tsgdd8dqd",
"qsdqdxzddqdssss003655ueuw4wwuu9h95wai:#+++-ww@=::wwwse6e37dxddxc",
"qdddgxxxdqd00sss0q65wp6eppwe639s5ww5r:::#-#ww:-@4@rweu7t7sddxgqd",
"qdgdgdqxqqq07sjs0066ew5ejhps966sre5wa5$y#--4ww:o@5uywsst7tdxdgdq",
"qqcdddqzqqqq00j7tusteeweksteeutueeu6p65y--@#wu4@Owyp6tsettddxcdq",
"qqddqqq8qzqqqdssstdsssehsu66uhtt7te6u655#$o@wyw4$$uk57tt73qdxxq8",
"x0gd8qzzzvzxdlcdgggddesjesss5tst7tu0uuy$r:-@:uww55pk5wtjj8dqzxvx",
"xqxd8zzqzcxxccbdlgdd0sst5sgstthsdttswuw454$$yy5uw5eh969qd0xgdxxc",
"ddcx8qq8zxzzxxdddsddqdsssss067tjddseepp55yy$yy$55wek0630dqxq88xv",
"xdcnz8qqzxvvbxdq7t0qdcjs6s0q7sttttse9psuu5w#y4555yuks07600ddqvxx",
"xdxbxdxqzxxxxxdx877gbcd77ss7st7e66679kpu55$$:#$56uklg0000dgdvvvx",
"8dddccczz8qxxbxddddbg7sd7ss7gseetsdsuhyy$@5y:$,59sslk030ddxd8d8z",
"8qqdccddq8xxcvxddjjdqs7stt6esjsdshs065py:$@$,$w99s9ff909tdbxdq8z",
"d8qgxxxdddxccqgdddh70707se6ssddsse765wpy::5,55ussksfs00qqd7xqq7z",
"x8qddqqsddlccddstjj7060q6stsssstt6s5ew$ry,y559a99ssklgqqtt73t87x",
"d88q0s0qsdsdsdddhhsddsddgsh3ssttsee65w@$pyas9w$u990glgdsgtttgqxc",
"878t700sssst777ssdlkllgss0s77ts7stue5556uku994$59ssdkffqdt7tdgxd",
"7777669sheees660tsddfggdgdgg6sdttst699699ka,:wy60sqsgsssdddtdgs3",
"223e6e4useeuhs70tdt6ss0d0dssstss760839659au#$uuuus09gssdddjddx72",
"e5455654w566hsss9u0ss0dgdqsstdddsdd78655wau55wuu9sd0qglsddggshsh",
"4@5555uwwwew5pee99sqdssll033tssggdddsu65ypuaw55uusdd0mlqddjteewu",
"@wrw5wyw4wewwru6tss0dsglbg077sqggdsssspauuwwwyuut7ddqcdttst6r444",
"ww$@55ww::::::pssssssgsqdd08ddsgcs777ssspp959ypggdgxdgdteee444ee",
"wr @$yy,#&#,:,yfffsllgqddqddd88dq00fqf9sauusffslcdgsgsshewre4444",
"ww:w$:#,>X*#;;,asssgdgqddddclgdlbfdqfs099ussssflljsfs0skuure4@ww",
"64@+#&X#&X&1y,:ifssgdd8dddddldgbmdggdfqf000sgsfsffsf96euuspw45wp",
"55 +X.XX##.&,,;rks0gqddlgllbbbcbmmgqfddcdgsggfsf09gk66eu5eeauwew",
"5:o&%..X#$X.#1,yus0dggglcllcmdddqqq000ccq0ssqsffuufu66sh969ah955",
"$,#X%XXX#:#>;$$,ppffssdddqqgqqqq0qqq80gqs000s0sfsueueeeuw599phw$",
",::X+&XX,1,,;,yyyuhje6sddqdqq80ddddqqqdq00s007ss9uu669usuu59upw,",
"ii:#--#>1,y1;#,y:45usstdqqqd0qqqqqdqqdd8dddgs99suhpuu99pu69uwy$$",
"#way,;<*%,w$#+::#@ws06sdttdddqdxq00qqdcqzdd060ssskhe596upwewuww+",
"wwpi,11&X;$$##:w@#eu6666qjqxqdqdd0qqdzqqqdq06ssssse6669uwwwwuue5",
"95yai1-#X=-w4-;::4wusu7s3tdddddcdsdddzdddqds0ss003625ueeuw:wu99f",
"w5w4ww:-o--yw:--4$wwre7e7dddxdddqqddzcqcdqqs0ss00065eueeupwe9690",
"uw5wpw$y@=+:wr: @4pwesst68dddgqqqddqddqxq8q87sjs9s3ee555hksh996u",
"9ue6uu5y-:@@we44Owypeestttdxzcqqdqcggqqdq8qqtsj7sssuuueefste6utu",
"7tu6u655--#@:u55$5pk56ht77dqzzq8qqddqqqzzqqd8ddsdt0sssuhs9t6ehu7",
"7tessu5$r:@@weew55uk55eds7dqzvmgz0dd8qzzzvxxjclddgggs6skesseeest"
};
