/* XPM */
static char *LavaF11733393853[] = {
/* columns rows colors chars-per-pixel */
"64 64 254 2 ",
"   c #4E0F05",
".  c #550A02",
"X  c #660701",
"o  c #790A02",
"O  c #661707",
"+  c #7A1404",
"@  c #5F351B",
"#  c #78270C",
"$  c #712E0F",
"%  c #880601",
"&  c #840B02",
"*  c #8B0B01",
"=  c #990500",
"-  c #930D02",
";  c #9B0C02",
":  c #871705",
">  c #951404",
",  c #971605",
"<  c #A30400",
"1  c #AB0700",
"2  c #A30D01",
"3  c #AB0B02",
"4  c #B80300",
"5  c #B20B01",
"6  c #BC0C02",
"7  c #AC1303",
"8  c #A31B05",
"9  c #A51805",
"0  c #AB1B04",
"q  c #B41303",
"w  c #BB1403",
"e  c #B41C04",
"r  c #BC1B04",
"t  c #89280A",
"y  c #982508",
"u  c #8F330B",
"i  c #9A360D",
"p  c #8A3913",
"a  c #993911",
"s  c #A42309",
"d  c #AA2809",
"f  c #B52305",
"g  c #B72506",
"h  c #B42B0B",
"j  c #BD2B0A",
"k  c #AB320C",
"l  c #A8390D",
"z  c #B3330D",
"x  c #BC340B",
"c  c #B93A0A",
"v  c #A63912",
"b  c #B73B12",
"n  c #C50400",
"m  c #CB0400",
"M  c #C40C01",
"N  c #CC0D01",
"B  c #D80400",
"V  c #D40C01",
"C  c #DC0C01",
"Z  c #C41403",
"A  c #CA1303",
"S  c #C21C04",
"D  c #CB1B03",
"F  c #C51C08",
"G  c #D41403",
"H  c #DC1303",
"J  c #D31A04",
"K  c #DC1A03",
"L  c #E30500",
"P  c #EC0400",
"I  c #E40D01",
"U  c #ED0B01",
"Y  c #F30600",
"T  c #FE0600",
"R  c #F40D01",
"E  c #FE0C01",
"W  c #E51301",
"Q  c #EB1402",
"!  c #E21C03",
"~  c #ED1B03",
"^  c #E61C09",
"/  c #F41302",
"(  c #FE1302",
")  c #F31A03",
"_  c #FE1C03",
"`  c #FE1F08",
"'  c #C42405",
"]  c #CC2305",
"[  c #C62908",
"{  c #CC2C0A",
"}  c #D12204",
"|  c #D72707",
" . c #DD2304",
".. c #DB2B06",
"X. c #D42D09",
"o. c #DD2B09",
"O. c #C93808",
"+. c #D33505",
"@. c #DB340C",
"#. c #D63A09",
"$. c #DB3A0C",
"%. c #C82F11",
"&. c #C73B12",
"*. c #D33B12",
"=. c #DA3812",
"-. c #E32505",
";. c #EB2405",
":. c #E42A05",
">. c #E92A07",
",. c #F32305",
"<. c #FE2304",
"1. c #F42C06",
"2. c #FD2B05",
"3. c #F52709",
"4. c #FE2C0A",
"5. c #E93709",
"6. c #EC350B",
"7. c #E33B0A",
"8. c #FD3305",
"9. c #FA3A05",
"0. c #F4320A",
"q. c #FE340A",
"w. c #F43C0C",
"e. c #FE3C0C",
"r. c #E43711",
"t. c #F63D11",
"y. c #9A4614",
"u. c #BA4509",
"i. c #AA4917",
"p. c #B74615",
"a. c #A8581B",
"s. c #B95817",
"d. c #B0621E",
"f. c #985121",
"g. c #AB5C23",
"h. c #BA5922",
"j. c #A76629",
"k. c #BA6823",
"l. c #B87832",
"z. c #C8490C",
"x. c #D84804",
"c. c #D4420C",
"v. c #D8430C",
"b. c #D2490B",
"n. c #DB4B0C",
"m. c #C3580C",
"M. c #D9540C",
"N. c #C74815",
"B. c #DB4412",
"V. c #D64815",
"C. c #DC4A16",
"Z. c #C3541A",
"A. c #C85718",
"S. c #DA5215",
"D. c #D55917",
"F. c #DE5D1C",
"G. c #E4430D",
"H. c #E8460A",
"J. c #F6460B",
"K. c #FE430B",
"L. c #FF4A0D",
"P. c #E4560C",
"I. c #E8570C",
"U. c #F75409",
"Y. c #FE530B",
"T. c #E84A13",
"R. c #FE4513",
"E. c #F44C13",
"W. c #FF4A12",
"Q. c #E65613",
"!. c #EB5513",
"~. c #EB5C13",
"^. c #EC5B1B",
"/. c #F45414",
"(. c #FE5414",
"). c #FE5C14",
"_. c #F75818",
"`. c #DD620C",
"'. c #CA6518",
"]. c #D56413",
"[. c #D96719",
"{. c #CB721C",
"}. c #DA751A",
"|. c #E9630C",
" X c #FA670B",
".X c #FC760B",
"XX c #E66C14",
"oX c #EA6817",
"OX c #E4641C",
"+X c #F36411",
"@X c #FE6413",
"#X c #FD6C13",
"$X c #FE651C",
"%X c #F56A18",
"&X c #FD6C1C",
"*X c #EA731B",
"=X c #EB731C",
"-X c #F37316",
";X c #FE7415",
":X c #FC7B14",
">X c #F3731C",
",X c #FC731B",
"<X c #F37B1D",
"1X c #FD7B1B",
"2X c #C75C23",
"3X c #D35E21",
"4X c #FF5D23",
"5X c #CA6425",
"6X c #C66827",
"7X c #D66724",
"8X c #DB6B23",
"9X c #CA7828",
"0X c #D77628",
"qX c #C97B35",
"wX c #D57E33",
"eX c #E66421",
"rX c #E36B25",
"tX c #ED6B21",
"yX c #F56A24",
"uX c #FF6C24",
"iX c #E77727",
"pX c #F47223",
"aX c #FD7322",
"sX c #F17C23",
"dX c #F97B29",
"fX c #E57F32",
"gX c #FB7932",
"hX c #EF811B",
"jX c #FA861A",
"kX c #FE931D",
"lX c #D38831",
"zX c #DA8837",
"xX c #EA862B",
"cX c #FC8424",
"vX c #F28A24",
"bX c #FB8A24",
"nX c #F58729",
"mX c #FE842B",
"MX c #FB8C2D",
"NX c #FC9525",
"BX c #F4922C",
"VX c #FB952C",
"CX c #FC9C2B",
"ZX c #EB8934",
"AX c #F38C32",
"SX c #FA8A34",
"DX c #EA9539",
"FX c #F99737",
"GX c #FBAE30",
"HX c #FBA73A",
"JX c #EF9A43",
"KX c #F7A64A",
"LX c #F7B249",
"PX c #FEC552",
/* pixels */
"<.R.eXk.$ O Z E _ /.FXCXHX-XbXMXFXlX8X0XA.x D E E 3 ; 5 M I ( Y ^ v O - R ( 8 $ N.pX,X}.Z.+X&XjX<XjXNX].k V ( w.rXxXxXjXDXa.h ~ ",
"( [ $   . ; P T 7 p j.0XlX}.FXDXlXd.i.u.k ] _ <.| O * G R R K N G C.a g ! e + f.2XmXMXxXoXbXuXMXyXNXbX|.#.) V y p.*XMXBXd.u D E ",
"E ;   X < V E P q y i.s.0X{.0Xs.y.y.O.+.] ;.q.R.T.a O.4.<.' 8 Z <.$XpXG.-.w u i.5XpXMXcX.XCXcXvX-XkXBX*XC.-.- + *.,XVX7Xt 9 U E ",
"P < X 2 _ <._ Q Z S #.z.].'.].D.n.O.X.<.;.e.(.uXyXOXT.R.o.z y Z q.SXFXdXC.{ %.B.tXyXMXVXNXHXiXxX=XCXBX[.N.r ; q @.I.6Xp + C T Y ",
"B < - r.(.uX(.>.! ! >.5.x.u.+.x.=.3.` 4.K.).@X&XaX<X[./.T.#.s r X.eXAXSXrX*.=.T.yXpX1XbXjXlXs.[.oXsX{.s.l 7 1 C ,.,.| ; 1 m P B ",
"E Z h 2XaXKXbX!.:.( ~ -.g }  .! ( C G r.).dX%X^.Q.rXh.p.C.B.s , j ^.gXKXJX2X*.T.I.+X.XjX:X{.m.yXdXMXoXM.{ J P Y E ( _ Z 6 < m B ",
"_ e.Z.7XpXLXLXDX7._ L U G Q Q C M 6 S E.,X=XS.c.H.N.u t j ' - & S W.gXFXJX2X%.r.J.@X:XkXjX}.|.,XmXcX>XiXv.Q T T / ,.2.x s - M Y ",
"e.Y.Q.P.+XpXVXZXB./ n L Q ;.X.S Z V } E.gX7Xi.O.5.%.: & G I n = ! Y.FXPXKX5X*.3.0.E.@XNXNXhX-XVXBXsX&XiXC.H U ( 2.J._.F.c.g Q <.",
"#X#X<X#X<XcXVXfX&.r o 7 z p.p.[ ! ) _ e.p.$ t d ..S - < I E Y 5 Q K.mXHXZX3X=.3.4.r._.gXDXzX5XS.D.^.dX8Xb Z ) q.L.@X#XoXx.:.2.Y.",
"hXXXoX-XjX<X*Xz.d .   # i.a.s.c ;.( E 9 O . : Z ) W U ) <.<.,.w W <.T.rXwX7XZ.%.r.%.*.C.D.s.p.B.Q.Q.'.a s | t.).cXcX>XS...-.K.;X",
"{.]. XjXsXoXn.+.8 O t l z.m.u.c } U 4 . . * N R ( <.q.L.(.(.n.k ] <.o.*.Z.N.p.x =.d f { &.b p.#.v.x x [ 0.R.uXSXFXxXD.h 3 F L.nX",
"'.[.,XHXDXs.h w ; d { V.).1X|.H.| 4 X   + A / ( <.K.&XcXdX,X`.z.#.0.} J ] [ b c &.s Z W H r r | { , F 4.(.aXnX0Xg.$ O X * e U.bX",
"9XiXtXtX2Xs 7 V H w.J. X1XNX&Xn.g - X o r ) ( _ +.n.=XSXFXHXZX*X|.x.g 7 Z Z f f %.e W E C N I ( A 2 Q q./.7Xi.u : o % = 5 } Y.hX",
"A.s.i.z h 0 M Q <.L.,X:XkXCXZXS.f ; ; A ) ` E A d z.oXXX*X0X9X{.m.z.g w n M 7 e J ! ( ~ Z N E E V 3 W X.x v y e Z n 4 n L  .O.].",
"t y e V G 2 6 _ q.uXFXNXGX=X'.k f q C / ( ^ N 5 d O.P.@X+X}.s.a.u.x.[ K Q I G ) ,.<.q.w.%.] ) I = & 2 r S J H ) <.<.A I T M , y ",
"G W ) ( R 3 V ( -.S.xXZXzXi.l ' K ^ <.3.-.J G L H @./.,X:X.X|.I.M.H.+.~ / _ 8.8.e.t.(.~.~.$.3.H ; 2 Z G R / <.q._.4X&.J Y 4 & 2 ",
"2.q.R.q.{ 9 M M > t p.i.p t Z ) 1.w.R.R.0.1.<._ Q r 7.%XmXVXaXpXrXv...W ) 8.).@X=XS.|.~.+XH.;.N 3 r -.<.<.<.8.).<XxXy.: 6 B 5 A ",
"W.uXaXN.O.+.,.Q 5 7 r 0 , M / _ 6.!.eX^.H.J.L.t.X.J ;.L.yXsXrXF.!.0.J A D e.;XjX<X].U.+X|.7.F 6 H 2.R.#.] ' +.M.*X6Xp 0 C ( -.0.",
"JXSXtXZ.n.U.L.;.M V U R I R ( <.=./.4XT.#.H./.D.c +.<.4.{ k x =.r.8 & & 0 6.uX=XvXiX|.P.G.[ , > J q.^.N.x e { b.b.p.s D / <.T.8X",
"tXOX~./.U.#X$X#.7 N E E / _ <.4.T.R.4X!.n.7./.].s.#.| Z X . : s b # # , D ;.E.^.OX].S.$.D 9 8 r ,.q.$.k ' J ;.>.7... .( _ e.^.8X",
"vX,X&X&X,X1XnXN.s M E R D >.8.e.^.4XgXyXD.R.(.%X|.x.+.w X o D J.eXk.i.' ;.` 4.6.*.*.F 7 ; 0 ..$.0.0.@.X.-.) ) <.3.` C ( >.G.oX0X",
"M.+X-XOX[.OXoXc e H / G w :.9.K.E.E.gXfX8X/.aXnX0Xb.#.! M J 9. X-X[.'.$.0.( E M ; 2 = o - S 5.T.$.;./ ) ) ~ ) ` ^ Z 3 M s v '.}.",
"XX#X,XiX8XD.z.*.-.,./ C V ,.e.).uXuXmXfX5X^.aXiX5Xc.$.<.R 4.).bXAXoXpXM.3.E m X o 6 w 2 5 ! 1.5.1._ ( ( ~ ^ 3.6.j : > q y i b.].",
" X,XdXFXXXN.{ -.o.] A n R _ L.gXZXZXAX0Xh.Z.OX0X7XoX!.-.w -.OXZX{.`.XXV.3.C 2 o 8 o.=.[ ! ( <.2.q.| g g h g ..[ h j ,.<.d k /.>X",
"dXsXnXKX6X&.3.` 4.} M m E _ e.6Xl.qXfXfX2XZ.Q.D.P.!.z o & F N.Z.D.P.b.] W H e k C.!.!.O.A H ,.5.b p l z.G.&.j h K q._.3Xa h J.rX",
"N.N.V.Z.i.%.q.t.R.[ 6 C E E r @ @ f.8XKXlXD.Q.T.n.@.* o 4 W 2.@.O.d e V ( 2.C.2XA.M.I.+.g e j O.p.i.b.+XaXF.z D 4.4XZXj.$ , 0.c.",
", , g ] j r._.4XR.F 3 B I / w + : O.!.<Xk.s.u.+.' q 7 V ( _ ~ G Z M C ( 2.(.0Xk.Z.M.7...d k c H.U.|.+X1XmX5Xl :.t.gXzXj.i.' _ w ",
"* 9 K ~ o.%.p.b s > & 6 ~ 2.q.X.' :.H.B.v h ' D F  .e.R.W.%.o - < 4 E 2.@XAXqXg.Z.v.0.0.v.b.H.U.#X,X&X1XmXoXc.0.R.rXqXk.z.>.( n ",
"] 3.0.6.&.*.k 8 : > > d 5.Y.$X^.x ;.<.K 7 w V G >.K.&XmXDXa.O * 4 L <.Y.CXLXl.y.c 5.9.E.D.M.Y. XjX<X}.XXMXSXeXv.J.[.8XiXF.t.K A ",
"L.K.W.!.C.7.f 7 r 3.K.C.E.yXAXDXi.@.2.! 5 4 n K 9.:XHXGXFXk.t 6 L ( K.:XFXlXd.u.O.1.L.+XXXP. X.XjXoX].x.,XpXF.b #.M.-X=Xp.$.r.4.",
"jXJ.t.B.B.1.K 7 o.R.$XiXA.[.OX0Xk.+X@Xn.> = V 2.).NXVXCXDXwXp.J E <.).:XjXa.y.h -.8. XjXvX*X X X;X,X:X+X1X=XA.x  .G.I.].i %.W.$X",
"GXG * , ^ ( K y r.uXMXJXh.^.(.1X=X1XvXs.+ ; C e.cXGXVXBXDXqXl K ( e.cXHX0Xi f W _ e.;XjXhXXX:XbXCXMXBXiX`.u.g K ( <...h y f @.FX",
"Q v O * R ` s $ N.,X,X}.m.+X@X1X<XjXjX].k C E w.0XxXvXjXZXa.g Q <.W.tXk.$ O M E _ _.DXCXHX-XjXSXFXlX8X0XA.j J ( E 3 > 5 Z H ( Y ",
"G C.i f ^ r # p s.mXMXBXoXmXdXMX>XNXvXXX#._ V i z.OXBXBXk.u D E ( [ $     ; L T 0 u j.0XzX}.FXDXzXj.s.u.v F ) _ | O * V R R ! N ",
"4.uXpXG.o.w y i.5XgXMXcX#XCXcXvX;XkXBXiXC. .* + &.,XBX0X# 0 R T E ; . X < C T P q y i.s.lX'.0Xd.a.i O.O.} ^ q.R.T.v O.4.` ' 8 M ",
"q.dXFXdXC.%.{ C.tXtXmXFXNXGXiXxX=XVXvX[.N.S = q @.Q.5Xp : V T Y P = X 3 _ <._ I Z r O.x.`.'.].M.x.+...,.>.e.(.aXyXOXG.R.o.z y Z ",
"X.eXZXSXrX*.=.Q.pXiX1XbXhXlXs.[.oX<X9Xs.k 7 3 C ,.,...> 1 m P B B < > >.(.uX(.>.! ! >.w.x.u.O.v.$.,._ <.R.(.$X#X,XsX8X/.T.c.s r ",
"[ ^.gXKXJX3X*.r.T.+X XkXjX{.m.yXmXMXoXM.O.G P Y E ( ( Z 6 2 n B Y Z h 2XdXHXbXQ.-._ Q -.g }  .~ ) H J r.@XdXoX~.^.rXs.b C.=.s , ",
"S W.gXFXJXA.&.>.J.).:XkXjX}.+X;XmXcX>X=Xr.~ T T / ,.4.%.s * M R ` t.Z.7XgXLXLXDXr._ B U V Q Q V N 6 F E.&X>XS.c.5.N.p t j ' ; o ",
"! Y.FXPXLX5X*.3.0.E.@XNXNX<X-XVXBXsX&XiXC.J P ( 2.J.).D.#.r Q 2.e.(.~.P.|.,XVXZXc.( n P Q >.X.r Z V J /.gX7Xi.&.H.%.: & G I n ; ",
"Q L.mXHXDX[.=.3.4.r._.gXDXwX5XD.D.~.sX8Xb r ) q.Y.@X#X|.x.>.2.Y.#X#X<X@X1XcXVXxX&.r & 7 x p.p.[ ^ / ` e.p.# # f -.Z - < U ( P 4 ",
"W <.T.rXqX8XZ.%.=.%.*.C.3XZ.p.B.Q.Q.D.y.s { t.uXdXmX=XS.o.-.K.;XjXXXXX-XjX<X*Xz.s     # i.a.s.u.;.( E ; O O : F ~ W Q ) _ <.,.q ",
"J ,.:.*.Z.N.b x =.d f { &.c p.#.c.c x [ 1.R.uXSXKXsXD.d 7 D L.nX{.D. XjXsXoXn.+.8 O t v N.m.u.c ] U 4 . . & N R ( <.8.L.(.Y.n.z ",
"x.1.J J J %.b b &.d Z W H e r X.[ , D 4.(.aXmX7Xg.$ O X & e L.BX{.[.;XHXDXs.d w ; s { V.).1X|.H...6 X   o A / ( <.L.&XdXdX;X`.z.",
"|.x.g 3 M Z g f ' r W E C N W E A 2 Q q._.5Xi.i : o - = 6 } Y.vX9XiXpXrXZ.s 7 V H 0.J. X,XNX&Xv.f - X + r ,.( ( X.n.=XAXFXFXBX*X",
"m.z.g w N M 7 q D ! _ ) Z N E E V 3 W X.x v y e N M 4 n B K O.].Z.s.l z h 0 M / 2.L.,X.XkXCXAXD.f ; ; A ) ( ( F k z.~.oX*XlXlX'.",
"u.z.+.K / L J ~ 3.<.q.w.%.{ ) I = & 2 r S J H ) <.<.A L T Z , t t y q G H 2 w ( q.uXKXNXCX<X'.k f 5 I / ( W n 6 d &.P.#X X}.s.a.",
"x.H.+.~ / _ 8.8.e.w.)./.Q.$.3.C = 2 Z V Q ( <.8.(.^.&.G Y 4 * < G W ) ( R 3 G / -.S.xXAXzXy.v ' K ! <.1.:.J A I H @./.;X;X.XM.|.",
"XXB...W ) 8.).@X>XC.+X|.+XH.;.N 5 r -.2._ <.e.).-XxXy.: M L 3 A 2.q.R.9.] 9 A M > t i.i.p : Z ) 1.w.W.J.w.1.<._ W S 7.%XmXMX>XpX",
"!.0.J N D e.;XjXhXD.I.U.OX7.F w G 4.t.@.] ' +.M.=X6Xp 9 V ( -.w.W.uXuXZ.O.X.,.W 5 7 ' 0 , N / _ 6.Q.yX^.H.w.L.t.X.D ;.R.yXsXrXOX",
"r.s : & 9 6.,XpXvXiX|.P.7.{ , ; J q.^.N.x f [ x.D.p.s D R <.E.8XJXSXrXA.n.U.W.;.M V U R W R ( <.*.T._.T.c.G.).D.u.X.<.4.{ k z =.",
"z $ # , D ;.E.^.OX[.M.#.] 0 , e ,.4.B.z ' J ;.>.7...K ( _ e.~.8XtXtXP.U.U.#X).#.7 V E E / _ <.2.E.R.4X_.n.5.!.].m.#.X.Z X   : f ",
"eX6Xi.' ;._ 4.6.*.*.] 3 ; 0 ..$.6.0.o.X.-.) / <.,.,.C ( >.T.OXiXsX,X&X%X>X1XsXZ.8 N R R D >.8.e.E.4XuXyX3XE.(.@X|.n.X.w X o D w.",
"-X'.'.#.3.( E M ; 3 - o * S 9.T.7.;./ ~ ,.~ ) <.^ A 3 M s a '.{.`.+X>XrX8XoXoXc e J / H w -.e.K.T.4XgXfX8XW.&XxX0Xz.#.! M G w. X",
"AXXXpXM.0.E n X o 6 r 2 q ! >.5.0.` ` ( ~ K 3.0.[ : > q y i c.[.|.#X&XiX7XD.V.*.o._ / C V ,.K.).uXuXmXfX6X^.aXfX'.G.#.<./ 4.@XbX",
"{.|.oXb.;.C 3 + 9 o.$.' W ( <.8.4.| e g g [ | x d r 4.3.d k E.>X X;XdXFXXXN.{ o.o.} Z n R _ L.mXZXZXAX0Xh.N.eX0X7XoX!.;.w -.eXZX",
"A.M.b.{ W H e k C.!.!.O.A H _ 5.b p l z.C.O.j f o.q.(.7Xa d J.*XdXsXSXKX6X&.;.` 4.} Z m E ` q.6Xl.qXxXnX2XA.P.D.P.~.j o & F N.Z.",
"O.f e V R 4.C.2XA.D.I.+.g r j c p.i.b.%XaX^.x D 2.4XZXj.$ y 1.#.N.N.V.A.v *.q.e.R.[ 6 C E E w @ @ f.8XJXwXD.P.P.n.X.: o 4 Q <.$.",
"Z w C E 2.(.9Xk.Z.S.7.+.d k x H.U.|. X1XmX5Xl ..e.gXzXj.v [ _ w : , [ { h r._.4XR.F 1 V I / 6 + : b ~.sXk.s.z.O.' q 3 N ( ( ) G ",
"< n E 2.@XBXlXa.Z.$.0.8.b.b.H.Y.@X#X,XjXcXtX#.6.E.8XqXk.z.:.( n * 9 K ^ o.%.p.b s > & w ~ 2.q.X.[ -.5.V.v h ' D S  .e.R.R.%.+ % ",
"4 L <.Y.CXLXl.i.x 7.e.!.D.M.Y. XjX<X}.XXmXSXrXG.J.F.[.0XF.t.^ A ] 3.q.r.&.*.k 9 : - > 0 5.(.$XQ.x ;.<.K 3 6 H G ;.J.&XVXDXf.O - ",
"L E K.;XFXlXa.i.O.1.L.+XXXM. X.XjXoX].x.,XaX[.c #.P.%XsXp.$.r.1.K.e.(.E.C.=.g q S ,.e.V.T.aXFXDXi.=.2.^ 5 4 n K 9.1XCXGXHXk.t w ",
"E 2.)..XjXd.i h K 8.).jXvX*X.X X.X;X>X+X<X*XA.x ..G.!.].i x W.$XjXJ.t.B.*.3.J q -.K.%XiXD.^.OX0Xs. X@Xv.> = V 2.@XNXFXNXDX0Xp.H ",
"( e.cXHX0Xi g Q _ K.;XjXhXXX.XjXFXMXBXpX[.c g K ( <...z y f o.VXGXJ * , ~ ` G y T.aXMXJXh.F.(.1XiXjXvXs.# = C e.dXGXFXCXDX9Xv K "
};
