/* XPM */
static char *TreeRings1733393853[] = {
/* columns rows colors chars-per-pixel */
"64 64 88 1 ",
"  c #6D6353",
". c #736955",
"X c #7B6C55",
"o c #7C6E5A",
"O c #7F7057",
"+ c #7E715C",
"@ c #7E7260",
"# c #83745E",
"$ c #88775D",
"% c #86785F",
"& c #8A795E",
"* c #927D5C",
"= c #857661",
"- c #897761",
"; c #867962",
": c #8B7C64",
"> c #8E7E69",
", c #917E65",
"< c #917F69",
"1 c #94805F",
"2 c #8E8066",
"3 c #8E8169",
"4 c #938266",
"5 c #9A8565",
"6 c #9E8866",
"7 c #94846A",
"8 c #9A866B",
"9 c #96896D",
"0 c #9C8A6D",
"q c #968670",
"w c #9A8770",
"e c #978971",
"r c #9D8C71",
"t c #9F9172",
"y c #A98C63",
"u c #A08768",
"i c #A28D6E",
"p c #A88D68",
"a c #A5916F",
"s c #AB916C",
"d c #AE9A6E",
"f c #B0956D",
"g c #A28E72",
"h c #A98F71",
"j c #A38F78",
"k c #A49274",
"l c #AA9574",
"z c #A79977",
"x c #AD9975",
"c c #A59479",
"v c #AB9679",
"b c #A69879",
"n c #AD9A7A",
"m c #B29673",
"M c #B29A75",
"N c #B99D76",
"B c #B19479",
"V c #B49D7B",
"C c #B99E7A",
"Z c #AEA17D",
"A c #B3A077",
"S c #BBA077",
"D c #B5A17D",
"F c #BBA37D",
"G c #BDA97F",
"H c #C2A27D",
"J c #AE9B82",
"K c #B39E81",
"L c #B99E81",
"P c #B5A281",
"I c #BBA582",
"U c #B4AA85",
"Y c #BDAA84",
"T c #BCA788",
"R c #BDAB89",
"E c #BDB086",
"W c #BFB18A",
"Q c #C1A684",
"! c #C2AA85",
"~ c #C8AC84",
"^ c #C3A688",
"/ c #C2AD8A",
"( c #C8AE8B",
") c #C1B087",
"_ c #C3B18C",
"` c #C9B28E",
"' c #C3B291",
"] c #CBB594",
/* pixels */
"vg:=:39t02&:4kSFGHSFMlk4;:8kk051&4ixNCPPPIACVl7#;>rzck972222&#:&",
"r2++#;24:&&2uMFGQQGCg7erbbce4&%$&4iMAFCCT^!QGFl4#3lDPPnt92243907",
":#+##=::::46lNCnVGz99ccnt9742%61&46dNNMfMFGSFHA0-7gnDFDZt729kczv",
"=;:4422379kk0707<0<qvqqw>449242&056xNNfmmCCFSSFl,,7rxMzxn927knVP",
":9kkgrkkccka99kr4>4ce:;#:>>44:&5:akMCCmmmCCFGSFM5::4ii0993;:9bPR",
"rnPPZvnnxt79zDYDvrqq::9kPJbVVv444MlnCCNfmCHHH!GCi5::442::##=2tJP",
"JTRTPZZV94tZDDPPKKk:7lxMPTDCMk0&5MxM7=#CMCCGY!QFM04::2&#:&#o=9tt",
"U/RRPPDc49zDDMVCLc::vFQ!RPCCAM5&##:7kcc<7zMCAFFACMc0744772:+o;33",
"Y_/RPPk7:7axACAFzl:uSHFSFffNNa44156kvbnKb3rDlkCVFFVVvbzknnt>+o;:",
"U__Pnzr::7axMkkG0,-lFSFNCmMNNa69562977kccJ>3;4::P!PCDDnZPTPk;o;4",
"RYb944,:<g044588:&5NGHGFCfmCCxx54245::X#>Jb9kPPb79!PPDDDTRRn7#;7",
"Uc>::>:,0i44&#,::2lFQ!GFCmlixxx5%xDGP_Fc-:rKKFPAA99PDPPPYR_Ut;#7",
"k3:9008i0::38779gnFAFFCMCr7r7:+#4iMFP^AFP:7VPVNVDt3zDDPYYWWYz3%2",
"3;0kzvvi;:kPVbnPVPFMVnVV7nvet051&1NFyMHGHm-nPCAVx922kFPYY_WUz02+",
">:0nMnk4#0YRUZVDDYY2>a::J7;;=&&420MNMNMMFF::vlgmMa4;909YYY)YZz7%",
"9<0znVk:=vR/TPPPYD2Y_Yce><vRDPM&6xNvpMS!~Fp#&5:,5vk:#;;;vR__WUz2",
"n0gMCh:#7ZW_YUPFD3DDMnD74!FTDFs4O#3k70lNISAk3:4,#7xlrrg,#vY___Pv",
"79nFk7:4tZWWTFFn7:gAMVV;SFSMySu:plTPPP:,:7FRKKbPP#&vnvvg:7YY)_TD",
"0MPzg:=9PW_RYD33;7a6,i:4FQFMfCla0::7rTcrYv:DVVAR_Vo0VMvg:7I!Y__Y",
"DI!v:+rP__WRt;044a;:::9AFFMCQCxi&AvK<:vPVAP3DFUY_P&:vCVg9PYYE_!Y",
"FYv2#:nR)EYV:gVvb+cYbPTFkxAr7v4X0MCPFa8!FNz:5vFY_b0;7zFV74GGYYY!",
"Ac924nY__!YV:rvv::_RDVPP:9:cTPFM8MsNFG$lzMMk#-:J_`U;+lzTDt;FAFYY",
"b032zYYYYTGI4kVi:9WYDD_7FVKKPnzAlMHMFHl;&$iCvzk#UW`Y#;nQYD92GGG!",
"kt74AY)YAFG:vDz+:W_RYn:&VF^I4ee&P(IIAxPRnT3*PMk:PY_Ex:9bDDt+xEGG",
"kt>qPYGYGY&ZYT4=T`YD:<<VNIF8CPNa$VqccP_YD_n;DFV:AYEY!n:9zc9;bGDA",
"tb29FFFGEA:zD7;D!EPY:zFsV:#5GNCsFVLvv:0DRRW23VTG2xM!E)20nr>7PYFF",
"e93tTGFADC:et7a)!AFF:II/:YP!xTYYdD/QF84lAP_!#kPYv;EYFY29D9:rn!!Y",
"te2tMNI!_Te;k3zFYEx7!!Dk7WYlDYY~;:FFIdn2FYGYY;Dv92DdG_t9bt>;g!!I",
"kt3cNAFQ!b;;t3TGMDg9n!n&_PA/`:3nMF:xF(P0cSY!G2Pb;v_(Cl47cc:+3zFF",
"be:0aMCGn8&8t;aN!`K#DTkA!GFx:MQM!DPkS(DF4IAVGevY%;nFANk9zYn77zhC",
"k978ilMCv9vTt:kMAY4<T!3AVF^kCYFYI^C!&!YY;m~QM2tDV:cMlp07kDPk4glC",
"bn3:0lCHx2nYb;5v!G:PY!7a~F~:R!~TD!!G:!!Yki!!l:kYTk7Ix0&tvTTb3gvC",
"Pvr:46lFk:vTVk:5NV:PPRn%MFD;QTCm!DI09DTFclCN,:/PTr3M444vYUPv>rlM",
"Dcbi#,iMi:9VVl;$ph;lDAD7-7C,GQIQFY^-M/~I<wi:#8VDC:,M&&bvVVVw:wil",
"FPl9#25i7=8CVn#o;##7Q!!ghgVFlVCI!CvlCFFD,57<40DVl:o$&4kMPVVh;5ii",
"VFkk4X#:#;:kVAg,>bouCICg-I]T:-CQMVk;I(!T;c<hrMQS7:o:::ivICl7=::5",
"CPgg.:<:o-:7FChrgLo5M!Yg<CmVFQw:4$ISIF^RgC<hgiINi-7:7ilFCv0<=##-",
"VVSk55org#5hCI:gk7g-T^!I</lvCCVQV!TMmLu#/FQ#8!TM8og08vMQIm8,##+-",
"MFGlvr:rw>ouaC^z5-g,/TIA:5iTQBVL/CB^j7b;MVm;iIQn8oKvV,LIIl5,#::#",
"MH!vrrgMT7=gPI~i<HQg<I'(Q89:rPVv^QC5:MilMIkgiT/I::gggvvFNmi:#g<=",
"BPvn vvvLo=7lIM9-hFi#&uMBpm:lrLL,=<:CMV0nRF:vI/R:5#rkQQIMl5o,g87",
"MCFclglgh-,-P^K:B9zC:eIl,L^L0hhnhIBBC~/Kka:k`/Vr8LB48!~QCv7;:vVg",
"mMFQQzli=<<:R/Pg>lCVk:o::8BCCLLCI^VVCvkr>>4I!Vk#gC5<evGGli,o-hBc",
"xCI!~Bw,uVh:cTTPr0(TV9gMg-$VCQC(vVLVR4=>3,lbu*o:gg8l-v!TYz:;:8lv",
"zMP!T,g:lQl0:5VIc;ikkb//~I:uw-9iIQTK5B:vJ<:VTkw;l50k4v^/Tg7-:<BV",
"lCGIz05,8VCh:7CnV7:r>3DIITli5gg;>::>:;lVl7:#4:78vCa>kT!/Rg<,::hv",
"nT/!vg-78kVg:X**5r&@39e27MIP^`TllVMCFBM6,#08;;zV~_4gn//TJ77lB5,7",
"vT^^vw:gw8Vg=g7VIT:+:7;::TIVVKCv`VLTCVh+8BT/ntlil42v((Ine3gBLh<5",
"vR(^verglaMk:;;9M4;=r8r-n8i^//TIgv7-gV<,^ITPbqwKk#5KPvh,::lhBu77",
"tU^R^ng70VGFck3#o-3:&8hrr#:>qrcg:>qq><wbIVVPq=;#o9cPMkl<:8kMk8,,",
"enP^^KK95A!IPM79ekzr,:#*,0k878<:,gP`TKLKa$#-bcq;:0Mhi5,;$8gl088:",
"39cDI!n820xllatzV!TVk8#5vCVFLMV(zMCKVVIVY:;>:::#,hVKVg47;8gk0rg7",
"::4lMVTv::0nnccbYRY~QI5&BCg>>vvhIP^(/`likx:7787=-:kVKr4:;0ikaag9",
":;:0hzVg8:>cr77enPPGQIg,:>;:->ggCTJTvww=#g<Bku0<>::<4::e9zlNvi0k",
":;:0gilmg4;+>>47knxvVLKvwwjJKjr#>:;:<97,-<ggii::,::;;:3kcv!Gx84r",
":&&:58plvr>@=3qr02&:imLITI^//Kv00ggagpVvhau8,;:<ckg9749MCPIAk4,0",
">:<47kDKVl,#=;77<>:;rVAPVCPPPFVMFVCVKPTCCMg&#7eMv!Ycbtkkllvi5::7",
"7;:>8kPVv8:=+>:>w<:7bPVPTQPTPVVPTTKMlllvVv8#:vv~!!!UnckbBVk,##4i",
"r977<88w7:;-;4g97w;wk88hDTR^QTPClllw:>7igg:-lQQQYTPnteqqjvq:##,5",
"0rr<::;;;;:::-48ic874-;>9ecnJVPv87><->-:>><8lIPVVVZk93>37>::2558",
"5gg8<:;;3qe9>:485u0;-:-<<>>>:><>;>9gJJcqwwckDCxi0tkt933;=o;<0zl8",
"7hVgeq79rvnve4:&,,8pwlllll88w8w8,gjvR/^IPILLMx62:279ee32@o;9vVcw",
",wcceq73tnKbcr74#&:0hggIchkkgkkkigDPIIKPCDDDVne:;:33993@oo=<rr8<",
":<qq3>:29znVVlr0-#,lVVVVMnVVCCTQKMVVCLPIIPPPDPc7::22;2@@@@=:::>>"
};
