/* XPM */
static char *WalkStone1733393853[] = {
/* columns rows colors chars-per-pixel */
"64 64 56 1 ",
"  c gray18",
". c #353535",
"X c #3C3C3C",
"o c #444444",
"O c #4C4C4C",
"+ c #535353",
"@ c #595957",
"# c #5B5B5B",
"$ c #636363",
"% c #676969",
"& c #6C6C6C",
"* c #706F6F",
"= c #6F6F70",
"- c #6F7171",
"; c #747474",
": c #787777",
"> c #7B7B7B",
", c #7F807F",
"< c #7F7F80",
"1 c #807F80",
"2 c #848484",
"3 c #8B8B8B",
"4 c #908F8F",
"5 c #8F908F",
"6 c #8E8E90",
"7 c #949494",
"8 c #979897",
"9 c #989897",
"0 c #9B9B9B",
"q c #A0A09E",
"w c #9F9FA1",
"e c #A4A4A4",
"r c #A7A8A7",
"t c #A8A8A7",
"y c #ACACAC",
"u c #AFAFB0",
"i c #B0AFB0",
"p c #B3B3B3",
"a c #B8B7B7",
"s c #B7B7B8",
"d c #BBBBBB",
"f c #BFC0BF",
"g c #BFBFC0",
"h c #C3C3C3",
"j c #C7C8C7",
"k c #CCCCCC",
"l c #CFD0D0",
"z c #D4D4D4",
"x c #D8D8D7",
"c c #DBDBDB",
"v c #DFE0E0",
"b c #E5E5E5",
"n c #E8E7E7",
"m c #EBEBEB",
"M c #F3F3F3",
"N c #FAFAFA",
/* pixels */
"yzysysssy93ee0>$#2X&pt&$#&&#zx>jy0@70dh&#OO:X7r$%2328e$te;1:%oo#",
"y>;3708093&pzcxs333k9##::332xmjss2+2izzkdp<;%8:$136>2q;;43#.o+2j",
"26ete0663,osNNxjdkdg1$*22773sse4y>#>2270wew9es24943;>9>O168<$=as",
"07tt78>83<opN93,2e1ye*13323>py3+93%8>3502:>9zy90831;$:%+tsp3@0mr",
"336e7>;972odx33;;3>2ag>&>,37ty3+3e3<;>3q0<&px97732;++O+8kj0:2nn0",
"2>&:635ur2Oxx>:&%2044k0#$%4yss9$2es8>>298>$vi8432:#+o;szs>17+bce",
":&;:uuryr3+xx3<>&3ty%ti:3ease0t2$8gst72w326x83322#oo7bme34eeXxze",
"8$$:390yr1+zj31;$>we3=p07tye4:72+hbzzkps73p06>2:$ Oezk36w0e7Oall",
"laq;+#266>@zj3>&%>794@ewjle32$>2+vy839eg4;0;$+OooO>h033743w6@icx",
"hyhkg8;+##$jj2>;;27e8O09yxs>;%;>Oke088we;;2>:>;;%:0je;23>>27Oyhk",
";=4djkks6&2sp2337eet1Oe9ej001+;;+j983703+=2whzs0>2hxzd321337Xij0",
"#$%;>3dyw78pe>39wtyw%#i93433p7##$k83334>X$7lxlq>;2thkkld2<>$#ds$",
"O#%*>>7<>>8e::690tyw&>ky427;pytwel33222.@:yge0237elgw9izls=O3e9O",
"&%$$&=33>$wpiy334803>3kk434282tdlj3&&=.+3ite8330ewkgde2dga>29y3:",
"::;$=<0e2+thxhyw290227fk7773ee3<pdy1Oo#4peyg7230t0shs3$0ayr96a;=",
"113338903&sbMct7,;2;32yk0e9338w9;34:>;4y79pss77e099s9&;7h8489s:=",
">28934397=kvdgxp7>;$370j806<:3092#;>>8skw28sgp79887e2#39l8:ejs>$",
">33722277=jxtttedgxxzp0l873:28w9;o2wigcxd38agad7379>&;ysw8e;hgp;",
"30082;9we>da37wwe0dsje3y93>:3yu0;$jkd1qjjywqpuddy32&+20d22s730t0",
"22372<ee0:77603;13w937323>:>0us9.3zNe373gkp78epssw;+*9yk>2tt32kx",
"t31689ee7=>2tt:;>28:#24=077wyee$#dzs09we4kk433ty72$389u037qpe:eb",
"l>$@#&#@@@-ih9;$$:2&o73>30ee933Xwcl8979s77ki2<47;@8daye9778sjp2e",
"xg83ue6>1plcc2%##;4:Op>;;2y+O.O2bc433>4t9=0ii3;;+2pss3w9770psw4&",
"Mnhhlkkkcmclj=O+%6e2Ot$$#+O+8pdzbt331;<832&8ae$#4ids27pe89w27=+=",
"b827tshjls70hw>6eyt2+0e0shkxxhpdh332>&*2222;ep739dz822pi009#+;eM",
"7933wphgt93>ezwygp3;+7cbnza3><2py233>%>06216&se07d7973ia43$+ucMj",
"32:6edy8927e<cdwre#o$ana421::<Oet2;<>18t8733#haptlt222ew<>#&kbs7",
"&;:27333723i99d:>+&tiky900041;o>9e$;>27e82::%hj3>tgj9;%2;2=$kbt;",
"&$=2:;23223ae&epatnjuzi6363387$$9t&&>12773;Oqxt>9i90spw0>:;:hxjr",
"ye22%#&<333y8+9kmMg2%dx9332<332+gy:%;>,34<#:kh&2ewwy22egky7>9rpp",
"pr73#o+>32382otxj721%qmk222>223Okh2+@#*22>otl3%9e908;#ehjs7>388e",
"r0:7>$&;;;<3o&g8:3773$0j8:222>3$aje3&&#OoO&ie@;33>>Oo1p8=##=ut17",
"p9@8wdd&#OO:X7e$%2328e$te:1:%oo$izupiassu94ww0>$#2X&pe&$#*&#zx>j",
"p2O2yzxkgu<;%7:$143>20;;43#.o+2jy:;34w8993;pzvxd333k9##>>232xmjs",
"i>#>225e0e09ts27063;>81O1691$=ap24eye0343<opNNxjdkdh>$*22733sse6",
"93%8>3602>>0zy99931;$:%+tsi3+0mr07tt78>83>opM0312e>ye*233222py3+",
"6e31;>3ww<&px98733=++o@7kh0;2bn0327e7>;971ogx32;;3>2ag>%>237yy3+",
"2es9>>208:$vi9732;$Oo:szs>18+bcr2<&;636ur2Oxx>>&%2974k0#$&3ysa8$",
"$8dsy720323x83321#Xo7bmw37eeoxzt:&;;uurtr3+xx2<>&3ty%ti>3ease0e2",
"Ojbzzjps73p03>2;$ +exk63w0e7oalk8$$>390yr2+zk32;$>0e3*p97tte7;73",
"+vy939eg6;0;$+OooO>h93347303#ixzldw=+#376:#zk3>&%>796@ewjke32$>2",
"+ke099ee;;21>>;;%>wje;23>>37Oyjkhyhkd8;O##$jj2>&;27e9O08yxs>;%;2",
"+h973703+;20hzae>2gxxd322337Xpj0;=4dhkka7=<sp2367wet2Oe8eh00>@=;",
"$z83333>.$7zxk0>;2thkklg2>>$#ds$#$&;>3dyw48pe>30qyyw%#p93733p7#@",
"0l33222.@:yge0237ekh08izks*O3e9OO#$=>>72;>8e:;390ttw&>ky727;pit0",
"lj3=%*.+3ite8339eekdge2sga>28y3;&%$$&&332$0ppy337903>3lk733282ts",
"pdt1+o$3pwyg433we9sja3$esyr93s;;:;;$=>0e>@yhxdu0190324dk7473eq31",
";46:>;3y89psp77e090s9%;7h7799a;=223347003&smMct81=2;23yjqe9367e9",
"2#;>18ple29sdp79887e2#49l7;wjs>$>38036397=kvdgzp71=$370k896<:399",
"=o2eidcxd39ahas73481&=yse8e:hhp;>23722247=jxtryeggxxzp0k973>28w9",
"=$jkd<qjjywwpydgy32&+20g22s730t930982:9we>da37w0e0gpje4t02>:3yu0",
".3zNe373gkp79epasw;+&9tk>2tt32kx223722wr0:773w3;13w938326>:1wys0",
"#dls09qe4kk734ty42$390iw38wie>evy31670ew7=:2tr:;:27:#24=987eyee$",
"ecz7989p77ji2167:#8dayw9777sjs2tl>###&##@@;ph9;$$:2&o73>30we973X",
"nc73317e9;wyy3;;+2paa600779paw7&cd93ur6:2ilcc2%#$:3:Oa>;=3y+o.O2",
"be331=>832&8ae$#3pdp27pe89w37=O*Mnjhljkkcmclj=O@%3e2Ot$$#+O+9pdl",
"h332>&;2221;ep839dz722py009#+=wMv827tdgjld60hw:3eut2+0e0pjkxxgpd",
"y233>%:03226&sw07d8974pp43$+pcNj7033wphgy03>ezwugi3:+7cbbza3>22p",
"t2:1>>8t9733#haprlt212rw1>#&kbd632:6tsu8827r<cdwee#o$ana721;>>Oe",
"0w$=>37e92;:%hk3:thj0=%2;1=%jby;&;:27333722u99d:>+&epkt909972;o<",
"9t%&><3373:O0xt>9p99spe0>:;;hxhr&#&2;*22223ae&epsenjyzp3333377$$",
"gi>$;>1341#>kh&2ewwy21edky7>0epppw32%$&2333y7+0kmNg2&dx8332<262+",
"kh3++#=22>otl3%9e998:$ejks7>389ept83#o+:32392otxh722%0mk222>233O",
"aje2=&#OoO&ie@;33>>OX1i8&#$&it<8t9;8>$&;;:13o&d9;3793%0j9>222>2$"
};
